<svg width="165" height="40" viewBox="0 0 165 40" fill="none" xmlns="http://www.w3.org/2000/svg">
<g clip-path="url(#clip0_80_2445)">
<path d="M23.6031 24.5632L22.263 20.1484H16.1964L12.5947 24.5632H23.6031Z" fill="#3065A2"/>
<path d="M17.8394 25.3254L21.9704 40H28.2902L23.8829 25.4845L17.8394 25.3254Z" fill="#3065A2"/>
<path d="M12.0953 25.1748L0 40.0002H6.16099L17.8212 25.3256L12.0953 25.1748Z" fill="#3065A2"/>
<path d="M113.444 28.1328L114.278 24.8748H97.4558L96.6187 28.1328H113.444Z" fill="#2B2445"/>
<path d="M111.187 33.6397L111.859 30.6551H99.9953L100.548 28.5289L96.5525 28.4229L95.9734 30.6551H95.9718L95.8493 31.134L95.6889 31.7505H95.6905L93.6953 39.5328H110.519L111.356 36.2681H98.5543L99.2293 33.6397H111.187Z" fill="#2B2445"/>
<path d="M41.5353 24.5632L42.6686 20.1484H37.219L36.0874 24.5632H41.5353Z" fill="#3065A2"/>
<path d="M35.9321 25.1665L32.127 40.0002H37.5766L41.3453 25.309L35.9321 25.1665Z" fill="#3065A2"/>
<path d="M135.332 28.1577L136.169 24.8979H132.098L131.262 28.1577H135.332Z" fill="#2B2445"/>
<path d="M124.31 28.1577L121.569 24.8979H117.509L116.673 28.1577H124.31Z" fill="#2B2445"/>
<path d="M131.108 28.7575L129.636 34.4931L124.682 28.6L116.611 28.4028L113.749 39.5592H117.808L120.26 29.9971L128.337 39.5592H132.407L135.153 28.8552L131.108 28.7575Z" fill="#2B2445"/>
<path d="M70.0193 24.5616C70.3038 20.7865 67.22 20.1484 64.1445 20.1484H46.818L45.7261 24.5616H70.0193Z" fill="#3065A2"/>
<path d="M64.2222 25.4482C64.2652 25.6687 64.2668 25.9321 64.1775 26.2802C63.744 27.9722 62.4569 27.9556 61.6248 27.9556H50.3666V27.949H44.8557L41.7637 40.0002H47.2282L49.187 32.3638H52.0028L58.7544 40.0002H66.1975L59.4459 32.3638H61.0093C63.6398 32.3638 68.1696 32.3074 69.7561 26.1144C69.8041 25.9288 69.8322 25.7615 69.867 25.5858L64.2205 25.4482H64.2222Z" fill="#3065A2"/>
<path d="M155.896 28.2172L156.731 24.9558H138.971L138.134 28.2172H155.896Z" fill="#2B2445"/>
<path d="M145.271 28.6829L142.465 39.6188H146.5L149.281 28.7806L145.271 28.6829Z" fill="#2B2445"/>
<path d="M92.2492 28.0598L94.8615 24.7603L90.3119 24.8282L87.769 28.1277L92.2492 28.0598Z" fill="#2B2445"/>
<path d="M79.603 28.2504L78.6368 25.0039L73.9697 25.0735L75.0087 28.32L79.603 28.2504Z" fill="#2B2445"/>
<path d="M87.3206 28.7093L81.8528 35.8071L79.7186 28.638L75.0962 28.5933L78.6399 39.6667L83.12 39.5988L91.7031 28.7507L87.3206 28.7093Z" fill="#2B2445"/>
<path d="M127.008 10.7155C124.426 11.2094 121.954 11.6353 119.671 12.0164C119.15 12.0993 118.652 12.1805 118.152 12.2634C114.772 8.12862 113.032 4.69655 112.933 4.48608L127.008 10.7155Z" fill="#3065A2"/>
<path d="M122.032 16.5025C116.524 16.645 110.218 16.1363 104.055 14.199C104.055 14.199 109.751 13.6157 118.152 12.2617C119.261 13.6306 120.558 15.074 122.032 16.5009V16.5025Z" fill="#2B2445"/>
<path d="M136.162 14.7608C133.37 15.3972 128.216 16.3534 122.032 16.5025C120.558 15.074 119.261 13.6306 118.152 12.2634C118.65 12.1805 119.15 12.0993 119.671 12.0165C121.954 11.6353 124.426 11.2094 127.008 10.7156L136.162 14.7608Z" fill="#2B2445"/>
<path d="M165 0C164.557 0.344699 150.415 11.2541 138.412 14.2006C138.412 14.2006 137.603 14.4392 136.162 14.7607L127.008 10.7155C138.912 8.46501 153.341 5.00311 165 0Z" fill="#407441"/>
<path d="M19.2277 15.629H17.426L17.0521 16.557H16.5376L18.0812 12.8035H18.6006L20.1392 16.557H19.6015L19.2277 15.629ZM19.0539 15.1932L18.3293 13.3785L17.5997 15.1932H19.0556H19.0539Z" fill="#00B428"/>
<path d="M21.0079 16.4411C20.8061 16.3184 20.6489 16.1511 20.5331 15.9356C20.4173 15.7202 20.3594 15.4816 20.3594 15.2181C20.3594 14.9546 20.4173 14.7159 20.5331 14.5005C20.6489 14.285 20.8061 14.116 21.0079 13.995C21.2097 13.8724 21.4347 13.8127 21.6846 13.8127C21.9129 13.8127 22.1081 13.8575 22.2735 13.9486C22.439 14.0398 22.5597 14.1492 22.6342 14.2768V12.6875H23.1156V16.5587H22.6342V16.161C22.5597 16.2886 22.439 16.398 22.2735 16.4891C22.1081 16.5803 21.9112 16.625 21.6846 16.625C21.4347 16.625 21.2097 16.5637 21.0079 16.4427V16.4411ZM22.2007 16.0682C22.3397 15.982 22.4472 15.8644 22.5266 15.7169C22.6044 15.5677 22.6441 15.402 22.6441 15.2181C22.6441 15.0341 22.6044 14.8667 22.5266 14.7192C22.4489 14.5701 22.3397 14.4541 22.2007 14.3679C22.0618 14.2817 21.9029 14.2386 21.7259 14.2386C21.5489 14.2386 21.3967 14.2801 21.261 14.3646C21.1254 14.4491 21.0195 14.5668 20.945 14.7159C20.8706 14.8651 20.8325 15.0324 20.8325 15.2181C20.8325 15.4037 20.8706 15.5694 20.945 15.7202C21.0195 15.8693 21.1254 15.987 21.261 16.0715C21.3967 16.156 21.5522 16.1975 21.7259 16.1975C21.8996 16.1975 22.0618 16.1544 22.2007 16.0682Z" fill="#00B428"/>
<path d="M26.3779 13.8774L25.2463 16.5588H24.7367L23.6084 13.8774H24.1328L25.008 16.0103L25.8832 13.8774H26.3795H26.3779Z" fill="#00B428"/>
<path d="M27.1983 16.4411C26.9965 16.3184 26.8393 16.1511 26.7235 15.9356C26.6077 15.7202 26.5498 15.4816 26.5498 15.2181C26.5498 14.9546 26.6077 14.7159 26.7235 14.5005C26.8393 14.285 26.9965 14.116 27.1983 13.995C27.4002 13.8724 27.6252 13.8127 27.875 13.8127C28.1033 13.8127 28.2985 13.8575 28.4639 13.9486C28.6294 14.0398 28.7502 14.1492 28.8246 14.2768V13.879H29.306V16.5604H28.8246V16.1627C28.7502 16.2903 28.6294 16.3996 28.4639 16.4908C28.2985 16.5819 28.1016 16.6267 27.875 16.6267C27.6252 16.6267 27.4002 16.5654 27.1983 16.4444V16.4411ZM28.3912 16.0682C28.5301 15.982 28.6377 15.8644 28.7171 15.7169C28.7948 15.5677 28.8345 15.402 28.8345 15.2181C28.8345 15.0341 28.7948 14.8667 28.7171 14.7192C28.6393 14.5701 28.5301 14.4541 28.3912 14.3679C28.2522 14.2817 28.0934 14.2386 27.9163 14.2386C27.7393 14.2386 27.5871 14.2801 27.4515 14.3646C27.3158 14.4491 27.2099 14.5668 27.1355 14.7159C27.061 14.8651 27.023 15.0324 27.023 15.2181C27.023 15.4037 27.061 15.5694 27.1355 15.7202C27.2099 15.8693 27.3158 15.987 27.4515 16.0715C27.5871 16.156 27.7426 16.1975 27.9163 16.1975C28.0901 16.1975 28.2522 16.1544 28.3912 16.0682Z" fill="#00B428"/>
<path d="M30.5454 13.8773V14.285C30.6132 14.1624 30.7274 14.053 30.8845 13.9569C31.0417 13.8608 31.232 13.811 31.4537 13.811C31.6621 13.811 31.8491 13.8591 32.0128 13.9569C32.1766 14.053 32.304 14.1905 32.395 14.3662C32.486 14.5435 32.5307 14.749 32.5307 14.9877V16.557H32.0492V15.0722C32.0492 14.8037 31.988 14.5966 31.864 14.4507C31.7399 14.3049 31.5695 14.2336 31.3511 14.2336C31.1989 14.2336 31.0616 14.2767 30.9391 14.3629C30.8167 14.4491 30.7208 14.5634 30.6513 14.7076C30.5818 14.8518 30.5454 15.0059 30.5454 15.1716V16.5587H30.064V13.8773H30.5454Z" fill="#00B428"/>
<path d="M35.2554 16.3566C35.0254 16.5339 34.7574 16.6234 34.448 16.6234C34.1867 16.6234 33.9501 16.5621 33.7416 16.4411C33.5332 16.3184 33.3694 16.1511 33.2503 15.9373C33.1311 15.7235 33.0732 15.4832 33.0732 15.2181C33.0732 14.9529 33.1311 14.7126 33.2486 14.4988C33.3661 14.285 33.5282 14.1177 33.7383 13.995C33.9468 13.8724 34.1817 13.8127 34.4398 13.8127C34.6449 13.8127 34.8368 13.8542 35.0122 13.937C35.1876 14.0199 35.3365 14.1342 35.4539 14.2817C35.573 14.4292 35.6541 14.5949 35.6971 14.7789H35.2058C35.1495 14.6165 35.0536 14.4856 34.9196 14.3878C34.7855 14.29 34.6251 14.2403 34.4381 14.2403C34.2628 14.2403 34.1089 14.2834 33.9732 14.3696C33.8376 14.4557 33.7317 14.5734 33.6572 14.7209C33.5828 14.8684 33.5447 15.0358 33.5447 15.2197C33.5447 15.4037 33.5828 15.571 33.6572 15.7185C33.7317 15.866 33.8376 15.9837 33.9732 16.0699C34.1089 16.156 34.2644 16.1991 34.4381 16.1991C34.6251 16.1991 34.7872 16.1494 34.9245 16.0483C35.0618 15.9489 35.1578 15.8163 35.214 15.6506H35.7054C35.6343 15.9439 35.4837 16.1809 35.2537 16.3582L35.2554 16.3566Z" fill="#00B428"/>
<path d="M36.8088 16.4411C36.6036 16.3184 36.4448 16.1511 36.329 15.9373C36.2132 15.7235 36.1553 15.4832 36.1553 15.2181C36.1553 14.9529 36.2132 14.7126 36.329 14.4988C36.4448 14.285 36.6036 14.1177 36.8088 13.995C37.0123 13.8724 37.2422 13.8127 37.4986 13.8127C37.7551 13.8127 37.985 13.8741 38.1885 13.995C38.392 14.116 38.5525 14.285 38.665 14.4988C38.7792 14.7126 38.8354 14.9529 38.8354 15.2181C38.8354 15.3059 38.8321 15.3705 38.8255 15.4153H36.6351C36.6599 15.6489 36.7509 15.8412 36.908 15.992C37.0652 16.1411 37.2621 16.2174 37.4953 16.2174C37.6724 16.2174 37.8295 16.1809 37.9652 16.108C38.1008 16.0351 38.1935 15.9423 38.2431 15.8296H38.7345C38.66 16.0632 38.5095 16.2555 38.2861 16.403C38.0611 16.5521 37.7981 16.625 37.4953 16.625C37.2389 16.625 37.0089 16.5637 36.8055 16.4427L36.8088 16.4411ZM38.0876 14.4425C37.9321 14.2933 37.7352 14.2204 37.4986 14.2204C37.2621 14.2204 37.0652 14.295 36.9097 14.4425C36.7542 14.5916 36.6632 14.7839 36.6384 15.0208H38.3656C38.3374 14.7839 38.2448 14.59 38.0893 14.4425H38.0876Z" fill="#00B428"/>
<path d="M39.9571 16.4411C39.7553 16.3184 39.5981 16.1511 39.4823 15.9356C39.3665 15.7202 39.3086 15.4816 39.3086 15.2181C39.3086 14.9546 39.3665 14.7159 39.4823 14.5005C39.5981 14.285 39.7553 14.116 39.9571 13.995C40.159 13.8724 40.384 13.8127 40.6338 13.8127C40.8621 13.8127 41.0573 13.8575 41.2227 13.9486C41.3882 14.0398 41.5089 14.1492 41.5834 14.2768V12.6875H42.0648V16.5587H41.5834V16.161C41.5089 16.2886 41.3882 16.398 41.2227 16.4891C41.0573 16.5803 40.8604 16.625 40.6338 16.625C40.384 16.625 40.159 16.5637 39.9571 16.4427V16.4411ZM41.1499 16.0682C41.2889 15.982 41.3964 15.8644 41.4759 15.7169C41.5536 15.5677 41.5933 15.402 41.5933 15.2181C41.5933 15.0341 41.5536 14.8667 41.4759 14.7192C41.3981 14.5701 41.2889 14.4541 41.1499 14.3679C41.011 14.2817 40.8521 14.2386 40.6751 14.2386C40.4981 14.2386 40.3459 14.2801 40.2102 14.3646C40.0746 14.4491 39.9687 14.5668 39.8943 14.7159C39.8198 14.8651 39.7818 15.0324 39.7818 15.2181C39.7818 15.4037 39.8198 15.5694 39.8943 15.7202C39.9687 15.8693 40.0746 15.987 40.2102 16.0715C40.3459 16.156 40.5014 16.1975 40.6751 16.1975C40.8488 16.1975 41.011 16.1544 41.1499 16.0682Z" fill="#00B428"/>
<path d="M44.3459 14.9695H42.707V14.5486H44.3459V14.9695Z" fill="#00B428"/>
<path d="M47.1224 12.8582C47.3408 12.9544 47.5161 13.0869 47.6468 13.2593C47.7775 13.4316 47.8503 13.6255 47.8669 13.841H47.3623C47.3342 13.6355 47.2316 13.4664 47.0562 13.3355C46.8792 13.2046 46.6492 13.1383 46.3663 13.1383C46.0834 13.1383 45.8535 13.193 45.6897 13.3007C45.5259 13.4084 45.4448 13.5476 45.4448 13.72C45.4448 13.8476 45.4845 13.9553 45.5623 14.0415C45.6401 14.1277 45.7608 14.2022 45.9246 14.2635C46.0884 14.3265 46.3101 14.3878 46.5913 14.4458C47.043 14.542 47.3722 14.6812 47.5757 14.8601C47.7792 15.0391 47.8818 15.2711 47.8818 15.5562C47.8818 15.7749 47.8156 15.9655 47.6849 16.1296C47.5542 16.2936 47.3739 16.4196 47.1472 16.5091C46.9189 16.5986 46.6674 16.6433 46.3895 16.6433C46.1116 16.6433 45.8402 16.5936 45.6103 16.4941C45.3803 16.3947 45.1983 16.2539 45.061 16.0716C44.9237 15.8893 44.8476 15.6788 44.8311 15.4385H45.3356C45.3605 15.6705 45.4696 15.8578 45.6649 16.0003C45.8601 16.1445 46.1116 16.2157 46.4209 16.2157C46.6046 16.2157 46.77 16.1892 46.9173 16.1362C47.0645 16.0832 47.177 16.0086 47.2581 15.9108C47.3391 15.8147 47.3805 15.7053 47.3805 15.5827C47.3805 15.4451 47.3408 15.3308 47.263 15.2413C47.1853 15.1502 47.0645 15.0739 46.9007 15.0093C46.7369 14.9447 46.5119 14.8833 46.2241 14.8237C45.7873 14.7325 45.4647 14.6016 45.2579 14.4293C45.0511 14.2569 44.9469 14.0199 44.9469 13.7167C44.9469 13.5128 45.0081 13.3355 45.1322 13.1847C45.2546 13.0339 45.4266 12.9162 45.645 12.835C45.8634 12.7538 46.1116 12.7124 46.3895 12.7124C46.6674 12.7124 46.9057 12.7605 47.1241 12.8549L47.1224 12.8582Z" fill="#00B428"/>
<path d="M50.4133 13.9933C50.6218 14.116 50.7855 14.2833 50.903 14.4971C51.0205 14.7109 51.0784 14.9512 51.0784 15.2163C51.0784 15.4815 51.0205 15.7218 50.903 15.9356C50.7855 16.1494 50.6234 16.3167 50.4133 16.4394C50.2048 16.562 49.9699 16.6217 49.7118 16.6217C49.4537 16.6217 49.2155 16.5603 49.0071 16.4394C48.8003 16.3167 48.6365 16.1494 48.5174 15.9356C48.3982 15.7218 48.3403 15.4815 48.3403 15.2163C48.3403 14.9512 48.3999 14.7109 48.5174 14.4971C48.6365 14.2833 48.7986 14.116 49.0071 13.9933C49.2139 13.8707 49.4488 13.811 49.7118 13.811C49.9749 13.811 50.2048 13.8724 50.4133 13.9933ZM49.2453 14.3662C49.1096 14.4524 49.0037 14.57 48.9276 14.7175C48.8515 14.8667 48.8135 15.0324 48.8135 15.2163C48.8135 15.4003 48.8515 15.5677 48.9276 15.7152C49.0037 15.8643 49.1096 15.9803 49.2453 16.0665C49.381 16.1527 49.5365 16.1958 49.7102 16.1958C49.8839 16.1958 50.0361 16.1527 50.1734 16.0665C50.3107 15.9803 50.4166 15.8627 50.4911 15.7152C50.5655 15.566 50.6036 15.4003 50.6036 15.2163C50.6036 15.0324 50.5655 14.865 50.4911 14.7175C50.4166 14.5684 50.3107 14.4524 50.1734 14.3662C50.0361 14.28 49.8822 14.2369 49.7102 14.2369C49.5381 14.2369 49.381 14.28 49.2453 14.3662Z" fill="#00B428"/>
<path d="M51.6953 16.557V12.6858H52.1771V16.557H51.6953Z" fill="#00B428"/>
<path d="M54.8569 16.5571V16.1495C54.7874 16.2721 54.6749 16.3815 54.5177 16.4776C54.3605 16.5737 54.1703 16.6234 53.9486 16.6234C53.7401 16.6234 53.5532 16.5754 53.3894 16.4776C53.2256 16.3815 53.0982 16.2439 53.0072 16.0683C52.9163 15.8926 52.8716 15.6855 52.8716 15.4468V13.8774H53.353V15.364C53.353 15.6324 53.4142 15.8396 53.5383 15.9854C53.6607 16.1312 53.8328 16.2025 54.0512 16.2025C54.2034 16.2025 54.3407 16.1594 54.4631 16.0732C54.5839 15.9871 54.6798 15.8727 54.751 15.7285C54.8205 15.5844 54.8569 15.4302 54.8569 15.2645V13.8774H55.3383V16.5588H54.8569V16.5571Z" fill="#00B428"/>
<path d="M57.5009 14.3033H56.9068V16.5571H56.4252V14.3033H55.8311V13.8774H56.4252V13.062H56.9068V13.8774H57.5009V14.3033Z" fill="#00B428"/>
<path d="M58.4671 12.7306C58.5284 12.7919 58.5582 12.8681 58.5582 12.9576C58.5582 13.0471 58.5284 13.1233 58.4671 13.1846C58.4058 13.2459 58.3297 13.2758 58.2353 13.2758C58.141 13.2758 58.0698 13.2459 58.0085 13.1846C57.9473 13.1233 57.9175 13.0487 57.9175 12.9576C57.9175 12.8664 57.9473 12.7919 58.0085 12.7306C58.0698 12.6692 58.1443 12.6394 58.2353 12.6394C58.3264 12.6394 58.4058 12.6692 58.4671 12.7306ZM57.9969 16.562V13.8757H58.4787V16.562H57.9969Z" fill="#00B428"/>
<path d="M61.1682 13.9933C61.3766 14.116 61.5404 14.2833 61.6579 14.4971C61.7753 14.7109 61.8332 14.9512 61.8332 15.2163C61.8332 15.4815 61.7753 15.7218 61.6579 15.9356C61.5404 16.1494 61.3783 16.3167 61.1682 16.4394C60.9597 16.562 60.7248 16.6217 60.4667 16.6217C60.2086 16.6217 59.9704 16.5603 59.7619 16.4394C59.5535 16.3184 59.3913 16.1494 59.2722 15.9356C59.1531 15.7218 59.0952 15.4815 59.0952 15.2163C59.0952 14.9512 59.1548 14.7109 59.2722 14.4971C59.3913 14.2833 59.5535 14.116 59.7619 13.9933C59.9704 13.8707 60.2037 13.811 60.4667 13.811C60.7298 13.811 60.9597 13.8724 61.1682 13.9933ZM60.0002 14.3662C59.8645 14.4524 59.7586 14.57 59.6825 14.7175C59.6064 14.865 59.5684 15.0324 59.5684 15.2163C59.5684 15.4003 59.6064 15.5677 59.6825 15.7152C59.7586 15.8627 59.8645 15.9803 60.0002 16.0665C60.1358 16.1527 60.2913 16.1958 60.4651 16.1958C60.6388 16.1958 60.791 16.1527 60.9283 16.0665C61.0656 15.9803 61.1715 15.8627 61.2459 15.7152C61.3204 15.566 61.3584 15.4003 61.3584 15.2163C61.3584 15.0324 61.3204 14.865 61.2459 14.7175C61.1715 14.5684 61.0656 14.4524 60.9283 14.3662C60.791 14.28 60.6371 14.2369 60.4651 14.2369C60.293 14.2369 60.1358 14.28 60.0002 14.3662Z" fill="#00B428"/>
<path d="M62.9338 13.8773V14.285C63.0016 14.1624 63.1158 14.053 63.2729 13.9569C63.4301 13.8608 63.6203 13.811 63.842 13.811C64.0505 13.811 64.2374 13.8591 64.4012 13.9569C64.565 14.053 64.6924 14.1905 64.7817 14.3662C64.8727 14.5435 64.9174 14.749 64.9174 14.9877V16.557H64.436V15.0722C64.436 14.8037 64.3747 14.5966 64.2507 14.4507C64.1266 14.3049 63.9562 14.2336 63.7378 14.2336C63.5856 14.2336 63.4483 14.2767 63.3259 14.3629C63.2034 14.4491 63.1091 14.5634 63.038 14.7076C62.9685 14.8518 62.9321 15.0059 62.9321 15.1716V16.5587H62.4507V13.8773H62.9321H62.9338Z" fill="#00B428"/>
<path d="M68.2586 14.3032H67.6643V16.557H67.1826V14.3032H66.6528V13.8773H67.1826V13.4232C67.1826 13.1945 67.2455 13.0122 67.373 12.8747C67.4988 12.7371 67.6743 12.6692 67.8994 12.6692C68.0236 12.6692 68.1295 12.6791 68.2139 12.6974V13.105C68.1709 13.0951 68.0931 13.0918 67.9838 13.0918C67.8845 13.0918 67.805 13.1216 67.7504 13.1829C67.6941 13.2442 67.666 13.3288 67.666 13.4381V13.879H68.2603V14.3049L68.2586 14.3032Z" fill="#00B428"/>
<path d="M70.5686 13.9933C70.777 14.116 70.9408 14.2833 71.0583 14.4971C71.1757 14.7109 71.2336 14.9512 71.2336 15.2163C71.2336 15.4815 71.1757 15.7218 71.0583 15.9356C70.9408 16.1494 70.7787 16.3167 70.5686 16.4394C70.3601 16.562 70.1252 16.6217 69.8671 16.6217C69.609 16.6217 69.3708 16.5603 69.1623 16.4394C68.9539 16.3184 68.7917 16.1494 68.6726 15.9356C68.5535 15.7218 68.4956 15.4815 68.4956 15.2163C68.4956 14.9512 68.5552 14.7109 68.6726 14.4971C68.7917 14.2833 68.9539 14.116 69.1623 13.9933C69.3708 13.8707 69.6041 13.811 69.8671 13.811C70.1302 13.811 70.3601 13.8724 70.5686 13.9933ZM69.4006 14.3662C69.2649 14.4524 69.159 14.57 69.0829 14.7175C69.0068 14.865 68.9688 15.0324 68.9688 15.2163C68.9688 15.4003 69.0068 15.5677 69.0829 15.7152C69.159 15.8627 69.2649 15.9803 69.4006 16.0665C69.5362 16.1527 69.6917 16.1958 69.8654 16.1958C70.0392 16.1958 70.1914 16.1527 70.3287 16.0665C70.466 15.9803 70.5719 15.8627 70.6463 15.7152C70.7208 15.566 70.7588 15.4003 70.7588 15.2163C70.7588 15.0324 70.7208 14.865 70.6463 14.7175C70.5719 14.5684 70.466 14.4524 70.3287 14.3662C70.1914 14.28 70.0375 14.2369 69.8654 14.2369C69.6934 14.2369 69.5362 14.28 69.4006 14.3662Z" fill="#00B428"/>
<path d="M72.3322 13.8774V14.29C72.4033 14.1674 72.5225 14.058 72.6896 13.9602C72.8568 13.8625 73.0587 13.8127 73.2953 13.8127C73.4476 13.8127 73.5701 13.8277 73.6611 13.8591V14.3182C73.5519 14.2685 73.4195 14.2436 73.2639 14.2436C73.0852 14.2436 72.9263 14.2867 72.784 14.3729C72.6416 14.4591 72.5308 14.5734 72.4513 14.7143C72.3719 14.8551 72.3322 15.0092 72.3322 15.1717V16.5587H71.8506V13.8774H72.3322Z" fill="#00B428"/>
<path d="M77.0025 12.8035C77.4144 12.8035 77.7337 12.8963 77.9587 13.0802C78.1854 13.2642 78.2979 13.5194 78.2979 13.8442C78.2979 14.0215 78.2433 14.1856 78.1324 14.3347C78.0216 14.4839 77.8843 14.5783 77.7188 14.6181C77.9372 14.6612 78.1176 14.7639 78.2615 14.923C78.4054 15.0821 78.4766 15.2744 78.4766 15.4997C78.4766 15.8246 78.3591 16.0831 78.1242 16.2737C77.8892 16.4642 77.5617 16.5604 77.1431 16.5604H75.4722V12.8068H77.0025V12.8035ZM77.5915 14.2983C77.7321 14.1922 77.8016 14.0397 77.8016 13.8442C77.8016 13.6486 77.7321 13.4962 77.5915 13.3901C77.4508 13.2841 77.249 13.231 76.9876 13.231H75.9635V14.459H76.9876C77.249 14.459 77.4508 14.406 77.5915 14.2999V14.2983ZM77.7536 15.9671C77.9041 15.8577 77.9802 15.7019 77.9802 15.4981C77.9802 15.2942 77.9041 15.1385 77.7536 15.0291C77.6014 14.9197 77.3946 14.865 77.1282 14.865H75.9635V16.1311H77.1282C77.3929 16.1311 77.6014 16.0764 77.7536 15.9671Z" fill="#00B428"/>
<path d="M79.5968 16.4411C79.3917 16.3184 79.2329 16.1511 79.1171 15.9373C79.0013 15.7235 78.9434 15.4832 78.9434 15.2181C78.9434 14.9529 79.0013 14.7126 79.1171 14.4988C79.2329 14.285 79.3917 14.1177 79.5968 13.995C79.8003 13.8724 80.0303 13.8127 80.2867 13.8127C80.5432 13.8127 80.7731 13.8741 80.9766 13.995C81.1801 14.1177 81.3406 14.285 81.4531 14.4988C81.5672 14.7126 81.6235 14.9529 81.6235 15.2181C81.6235 15.3059 81.6202 15.3705 81.6136 15.4153H79.4231C79.448 15.6489 79.5389 15.8412 79.6961 15.992C79.8533 16.1428 80.0501 16.2174 80.2834 16.2174C80.4604 16.2174 80.6176 16.1809 80.7533 16.108C80.8889 16.0351 80.9816 15.9423 81.0312 15.8296H81.5226C81.4481 16.0632 81.2976 16.2555 81.0742 16.403C80.8509 16.5505 80.5862 16.625 80.2834 16.625C80.027 16.625 79.797 16.5637 79.5935 16.4427L79.5968 16.4411ZM80.8773 14.4425C80.7218 14.2933 80.525 14.2204 80.2884 14.2204C80.0518 14.2204 79.8549 14.295 79.6994 14.4425C79.5439 14.5916 79.4529 14.7839 79.4281 15.0208H81.1553C81.1272 14.7839 81.0345 14.59 80.879 14.4425H80.8773Z" fill="#00B428"/>
<path d="M83.5531 14.3033H82.959V16.5571H82.4774V14.3033H81.8833V13.8774H82.4774V13.062H82.959V13.8774H83.5531V14.3033Z" fill="#00B428"/>
<path d="M85.4901 14.3033H84.896V16.5571H84.4144V14.3033H83.8203V13.8774H84.4144V13.062H84.896V13.8774H85.4901V14.3033Z" fill="#00B428"/>
<path d="M86.4093 16.4411C86.2042 16.3184 86.0454 16.1511 85.9296 15.9373C85.8138 15.7235 85.7559 15.4832 85.7559 15.2181C85.7559 14.9529 85.8138 14.7126 85.9296 14.4988C86.0454 14.285 86.2042 14.1177 86.4093 13.995C86.6128 13.8724 86.8428 13.8127 87.0992 13.8127C87.3557 13.8127 87.5856 13.8741 87.7891 13.995C87.9926 14.1177 88.1531 14.285 88.2656 14.4988C88.3797 14.7126 88.436 14.9529 88.436 15.2181C88.436 15.3059 88.4327 15.3705 88.4261 15.4153H86.2356C86.2605 15.6489 86.3515 15.8412 86.5086 15.992C86.6658 16.1428 86.8627 16.2174 87.0959 16.2174C87.273 16.2174 87.4301 16.1809 87.5658 16.108C87.7014 16.0351 87.7941 15.9423 87.8437 15.8296H88.3351C88.2606 16.0632 88.1101 16.2555 87.8867 16.403C87.6634 16.5505 87.3987 16.625 87.0959 16.625C86.8395 16.625 86.6095 16.5637 86.406 16.4427L86.4093 16.4411ZM87.6899 14.4425C87.5343 14.2933 87.3375 14.2204 87.1009 14.2204C86.8643 14.2204 86.6674 14.295 86.5119 14.4425C86.3564 14.5916 86.2654 14.7839 86.2406 15.0208H87.9678C87.9397 14.7839 87.847 14.59 87.6915 14.4425H87.6899Z" fill="#00B428"/>
<path d="M89.5333 13.8774V14.29C89.6045 14.1674 89.7237 14.058 89.8908 13.9602C90.058 13.8625 90.2599 13.8127 90.4965 13.8127C90.6488 13.8127 90.7712 13.8277 90.8623 13.8591V14.3182C90.753 14.2685 90.6206 14.2436 90.4651 14.2436C90.2863 14.2436 90.1275 14.2867 89.9851 14.3729C89.8428 14.4591 89.7319 14.5734 89.6525 14.7143C89.5731 14.8551 89.5333 15.0092 89.5333 15.1717V16.5587H89.0518V13.8774H89.5333Z" fill="#00B428"/>
<path d="M93.1627 16.113H95.2208V16.5587H92.6714V12.8052H93.1627V16.1146V16.113Z" fill="#00B428"/>
<path d="M96.2205 12.7306C96.2818 12.7919 96.3116 12.8681 96.3116 12.9576C96.3116 13.0471 96.2818 13.1233 96.2205 13.1846C96.1593 13.2459 96.0831 13.2758 95.9887 13.2758C95.8944 13.2758 95.8232 13.2459 95.7619 13.1846C95.7007 13.1233 95.6709 13.0487 95.6709 12.9576C95.6709 12.8664 95.7007 12.7919 95.7619 12.7306C95.8232 12.6692 95.8994 12.6394 95.9887 12.6394C96.0781 12.6394 96.1593 12.6692 96.2205 12.7306ZM95.7504 16.562V13.8757H96.2321V16.562H95.7504Z" fill="#00B428"/>
<path d="M98.3387 14.3032H97.7444V16.557H97.2627V14.3032H96.7329V13.8773H97.2627V13.4232C97.2627 13.1945 97.3256 13.0122 97.453 12.8747C97.5789 12.7371 97.7543 12.6692 97.9795 12.6692C98.1036 12.6692 98.2096 12.6791 98.294 12.6974V13.105C98.251 13.0951 98.1732 13.0918 98.0639 13.0918C97.9646 13.0918 97.8851 13.1216 97.8305 13.1829C97.7742 13.2442 97.7461 13.3288 97.7461 13.4381V13.879H98.3404V14.3049L98.3387 14.3032Z" fill="#00B428"/>
<path d="M99.2297 16.4411C99.0245 16.3184 98.8657 16.1511 98.7499 15.9373C98.6341 15.7235 98.5762 15.4832 98.5762 15.2181C98.5762 14.9529 98.6341 14.7126 98.7499 14.4988C98.8657 14.285 99.0245 14.1177 99.2297 13.995C99.4331 13.8724 99.6631 13.8127 99.9195 13.8127C100.176 13.8127 100.406 13.8741 100.609 13.995C100.813 14.1177 100.973 14.285 101.086 14.4988C101.2 14.7126 101.256 14.9529 101.256 15.2181C101.256 15.3059 101.253 15.3705 101.246 15.4153H99.0559C99.0808 15.6489 99.1718 15.8412 99.3289 15.992C99.4861 16.1428 99.683 16.2174 99.9162 16.2174C100.093 16.2174 100.25 16.1809 100.386 16.108C100.522 16.0351 100.614 15.9423 100.664 15.8296H101.155C101.081 16.0632 100.93 16.2555 100.707 16.403C100.484 16.5505 100.219 16.625 99.9162 16.625C99.6598 16.625 99.4298 16.5637 99.2264 16.4427L99.2297 16.4411ZM100.51 14.4425C100.355 14.2933 100.158 14.2204 99.9212 14.2204C99.6846 14.2204 99.4877 14.295 99.3322 14.4425C99.1767 14.5916 99.0857 14.7839 99.0609 15.0208H100.788C100.76 14.7839 100.667 14.59 100.512 14.4425H100.51Z" fill="#00B428"/>
</g>
<defs>
<clipPath id="clip0_80_2445">
<rect width="165" height="40" fill="white"/>
</clipPath>
</defs>
</svg>
